<?xml version="1.0" standalone="no"?>
<!DOCTYPE svg PUBLIC "-//W3C//DTD SVG 20010904//EN"
 "http://www.w3.org/TR/2001/REC-SVG-20010904/DTD/svg10.dtd">
<svg version="1.0" xmlns="http://www.w3.org/2000/svg"
 width="300.000000pt" height="168.000000pt" viewBox="0 0 300.000000 168.000000"
 preserveAspectRatio="xMidYMid meet">
<metadata>
Created by potrace 1.10, written by Peter Selinger 2001-2011
</metadata>
<g transform="translate(0.000000,168.000000) scale(0.100000,-0.100000)"
fill="#000000" stroke="none">
<path d="M2568 1673 c13 -2 25 -10 28 -17 3 -7 15 -11 28 -9 13 3 28 -2 35
-11 8 -9 23 -16 35 -15 15 0 17 2 6 7 -8 4 -27 15 -41 24 -14 10 -45 20 -70
22 -24 2 -34 1 -21 -1z"/>
<path d="M2798 1673 c7 -3 16 -2 19 1 4 3 -2 6 -13 5 -11 0 -14 -3 -6 -6z"/>
<path d="M2900 1676 c0 -2 7 -7 16 -10 8 -3 12 -2 9 4 -6 10 -25 14 -25 6z"/>
<path d="M2970 1676 c0 -2 7 -9 15 -16 12 -10 15 -10 15 4 0 9 -7 16 -15 16
-8 0 -15 -2 -15 -4z"/>
<path d="M2371 1661 c-16 -10 -44 -93 -61 -176 -6 -33 -14 -69 -16 -80 -4 -16
-3 -17 5 -5 5 8 13 36 16 62 4 30 11 46 17 41 6 -3 8 -1 5 4 -8 12 17 36 26
26 4 -3 7 -1 7 5 0 6 -4 13 -9 17 -13 8 -5 67 11 80 7 5 14 16 16 23 2 14 1
14 -17 3z"/>
<path d="M2450 1666 c0 -2 7 -7 16 -10 8 -3 12 -2 9 4 -6 10 -25 14 -25 6z"/>
<path d="M2877 1654 c3 -7 9 -14 14 -14 14 0 10 17 -5 23 -10 4 -13 1 -9 -9z"/>
<path d="M2694 1648 c-5 -8 -2 -9 10 -5 10 4 24 -1 34 -11 23 -23 52 -35 52
-22 0 6 -8 10 -17 10 -15 0 -16 2 -3 10 12 8 11 10 -7 10 -12 0 -25 5 -28 10
-8 14 -32 13 -41 -2z"/>
<path d="M2944 1651 c4 -5 -3 -7 -14 -4 -39 10 -19 -13 25 -29 25 -10 45 -15
45 -13 0 7 -47 55 -54 55 -4 0 -5 -4 -2 -9z"/>
<path d="M2420 1645 c0 -2 10 -10 23 -16 20 -11 21 -11 8 4 -13 16 -31 23 -31
12z"/>
<path d="M2540 1630 c0 -17 41 -33 54 -20 8 8 7 10 -6 5 -10 -4 -18 -3 -18 3
0 5 -7 12 -15 16 -8 3 -15 1 -15 -4z"/>
<path d="M2837 1623 c5 -12 2 -15 -10 -10 -9 3 -17 2 -17 -2 0 -5 7 -11 15
-15 8 -3 15 0 15 7 0 8 3 8 9 -1 5 -8 16 -12 26 -10 13 2 11 7 -14 26 -24 18
-29 19 -24 5z"/>
<path d="M2917 1599 c7 -7 15 -10 18 -7 3 3 -2 9 -12 12 -14 6 -15 5 -6 -5z"/>
<path d="M2390 1584 c0 -6 7 -17 15 -24 8 -7 15 -9 15 -5 0 4 7 2 15 -5 8 -7
21 -10 29 -7 8 3 20 -1 26 -9 7 -8 17 -14 22 -14 6 0 6 6 -1 14 -10 12 -8 13
8 9 12 -3 19 -8 17 -12 -4 -5 28 -6 79 -2 18 2 17 4 -5 12 -14 6 -38 12 -55
14 -16 2 -32 4 -35 5 -3 1 -13 2 -22 1 -10 -1 -27 3 -39 9 -15 8 -19 9 -15 1
5 -7 -1 -10 -14 -8 -12 2 -26 10 -31 18 -5 8 -9 9 -9 3z"/>
<path d="M2708 1550 c-39 -10 -4 -20 74 -22 51 -2 77 -7 86 -18 11 -13 12 -13
10 0 -2 11 7 15 40 15 24 0 46 -3 49 -7 2 -5 11 -8 19 -8 20 0 17 30 -3 31
-10 0 -71 4 -135 7 -65 4 -127 5 -140 2z"/>
<path d="M2647 1519 c7 -7 15 -10 18 -7 3 3 -2 9 -12 12 -14 6 -15 5 -6 -5z"/>
<path d="M2357 1470 c-10 -28 -22 -48 -27 -45 -6 4 -7 -2 -3 -12 5 -14 12 -6
31 35 13 29 22 57 20 62 -2 6 -11 -12 -21 -40z"/>
<path d="M2646 1492 c-11 -10 -6 -19 9 -19 8 0 15 5 15 11 0 5 6 3 13 -6 13
-17 56 -20 60 -4 3 13 -86 30 -97 18z"/>
<path d="M2502 1430 c0 -14 2 -19 5 -12 2 6 2 18 0 25 -3 6 -5 1 -5 -13z"/>
<path d="M2760 1435 c-41 -6 -90 -8 -108 -4 -44 10 -70 -13 -44 -40 22 -23 27
-19 12 9 -11 20 -10 21 23 16 18 -3 41 -8 50 -12 10 -3 17 -2 17 3 0 5 7 10
15 10 8 0 15 -5 15 -11 0 -7 4 -6 8 1 5 7 32 15 60 17 29 3 50 2 48 -2 -2 -4
17 -5 42 -3 30 2 40 6 31 11 -25 15 -91 16 -169 5z"/>
<path d="M2515 1386 c-24 -26 -35 -32 -44 -23 -8 8 -11 7 -11 -6 0 -30 41 -18
53 16 4 11 12 15 18 11 8 -4 9 -3 5 4 -9 15 16 16 30 2 6 -6 10 -3 11 10 3 31
-26 24 -62 -14z"/>
<path d="M2362 1380 c0 -14 2 -19 5 -12 2 6 2 18 0 25 -3 6 -5 1 -5 -13z"/>
<path d="M2380 1389 c0 -19 46 -53 60 -44 17 11 11 26 -10 23 -10 -2 -26 6
-34 17 -13 17 -15 17 -16 4z"/>
<path d="M2790 1385 c0 -8 4 -15 10 -15 5 0 7 7 4 15 -4 8 -8 15 -10 15 -2 0
-4 -7 -4 -15z"/>
<path d="M2861 1384 c0 -11 3 -14 6 -6 3 7 2 16 -1 19 -3 4 -6 -2 -5 -13z"/>
<path d="M2926 1375 c4 -8 11 -15 16 -15 6 0 5 6 -2 15 -7 8 -14 15 -16 15 -2
0 -1 -7 2 -15z"/>
<path d="M2296 1355 c-9 -26 -7 -32 5 -12 6 10 9 21 6 23 -2 3 -7 -2 -11 -11z"/>
<path d="M2240 1340 c-13 -11 -27 -20 -32 -20 -4 0 -8 -12 -8 -26 0 -21 4 -25
19 -21 18 4 19 2 12 -32 -1 -2 -8 2 -16 9 -12 10 -15 10 -15 -2 0 -8 5 -19 12
-26 9 -9 9 -12 0 -12 -7 0 -12 -8 -13 -17 0 -15 -2 -15 -9 2 -7 16 -9 12 -9
-20 -1 -38 0 -39 14 -18 10 14 22 20 33 17 13 -5 14 -4 4 4 -12 8 -11 14 1 38
20 38 47 144 38 144 -5 0 -18 -9 -31 -20z m10 -35 c-7 -8 -20 -15 -29 -15 -13
1 -13 3 3 15 26 19 42 19 26 0z"/>
<path d="M1390 1331 c0 -6 4 -13 10 -16 6 -3 7 1 4 9 -7 18 -14 21 -14 7z"/>
<path d="M2346 1323 c-6 -14 -5 -15 5 -6 7 7 10 15 7 18 -3 3 -9 -2 -12 -12z"/>
<path d="M2951 1335 c-1 -7 -53 -10 -141 -9 -77 1 -140 -2 -140 -6 0 -4 7 -13
15 -20 11 -9 15 -10 15 -1 0 8 8 10 21 6 14 -5 19 -4 15 4 -4 6 -1 9 7 5 8 -3
47 -6 87 -8 62 -2 75 -6 81 -22 7 -19 8 -19 8 0 1 11 4 17 7 13 10 -9 36 22
31 36 -3 6 -6 7 -6 2z"/>
<path d="M2363 1305 c-3 -9 -3 -18 -1 -21 3 -3 8 4 11 16 6 23 -1 27 -10 5z"/>
<path d="M2640 1305 c0 -8 5 -15 10 -15 6 0 10 7 10 15 0 8 -4 15 -10 15 -5 0
-10 -7 -10 -15z"/>
<path d="M2973 1306 c3 -8 1 -17 -6 -19 -7 -3 -2 -4 11 -4 25 1 30 22 6 31
-11 4 -15 2 -11 -8z"/>
<path d="M2610 1300 c0 -5 5 -10 10 -10 6 0 10 5 10 10 0 6 -4 10 -10 10 -5 0
-10 -4 -10 -10z"/>
<path d="M1185 1290 c-4 -6 -12 -7 -18 -4 -7 4 -9 4 -5 -1 4 -4 -9 -20 -30
-35 -81 -61 -151 -140 -123 -140 5 0 12 6 14 13 3 7 6 7 6 1 1 -6 -9 -19 -21
-30 -12 -10 -18 -13 -14 -7 5 9 2 11 -8 7 -9 -3 -15 -9 -14 -12 1 -4 -9 -29
-22 -57 -13 -27 -25 -71 -28 -97 -2 -26 -8 -45 -13 -43 -4 3 -1 -8 7 -25 9
-16 23 -30 31 -30 14 0 14 3 -2 20 -14 16 -16 23 -7 32 16 16 15 41 0 33 -7
-4 -5 0 5 8 11 9 15 21 10 32 -4 13 -3 16 5 11 8 -4 12 0 12 11 0 11 5 24 12
31 8 8 8 15 -3 29 -12 16 -11 15 9 -1 22 -19 22 -19 22 2 0 14 5 20 13 16 8
-3 20 3 28 13 13 16 12 17 -3 5 -9 -8 -22 -11 -29 -7 -6 4 -7 10 -3 14 5 3 15
14 23 24 11 14 11 20 0 35 -13 15 -12 16 3 4 19 -15 42 -7 32 10 -5 7 -1 9 9
5 13 -5 17 -1 17 19 0 14 4 23 10 19 6 -3 14 5 19 19 8 19 15 23 33 18 l23 -7
-22 -3 c-13 -2 -23 -8 -23 -13 0 -6 4 -8 8 -5 5 3 24 8 42 11 18 3 38 9 44 13
6 4 22 7 36 8 14 1 45 6 70 11 30 6 60 5 90 -2 l45 -12 -60 -7 c-33 -3 -70 -7
-82 -8 -12 -1 -20 -5 -18 -8 2 -3 -5 -11 -16 -18 -16 -10 -19 -9 -19 3 0 8 -5
15 -11 15 -6 0 -9 -6 -6 -12 6 -18 -12 -50 -24 -43 -5 4 -12 -1 -15 -10 -7
-17 -60 -49 -84 -50 -8 0 -24 -6 -35 -12 -17 -10 -17 -12 -3 -13 9 0 19 6 21
13 4 7 6 6 6 -4 1 -18 -22 -42 -31 -33 -3 3 -9 0 -14 -7 -5 -8 -3 -10 6 -4 7
4 11 4 8 -1 -2 -5 -11 -24 -18 -41 -8 -18 -18 -33 -23 -33 -5 0 -2 -11 7 -24
9 -15 12 -27 6 -31 -14 -8 0 -35 18 -35 13 0 12 3 -4 15 -22 17 -15 19 20 5
21 -7 24 -6 19 6 -3 8 -12 13 -20 10 -8 -3 -12 -2 -8 3 3 5 1 20 -4 34 -8 20
-3 32 33 78 43 54 76 87 76 75 0 -10 78 44 83 59 12 29 100 47 277 55 233 11
383 -8 475 -60 20 -11 41 -17 47 -14 7 4 8 2 4 -5 -5 -7 3 -13 23 -17 17 -4
31 -10 31 -14 0 -5 14 -6 31 -3 21 3 29 1 24 -6 -3 -6 -13 -11 -21 -11 -8 0
-14 -7 -14 -16 0 -8 -4 -13 -8 -10 -4 2 -9 -4 -9 -15 -2 -26 15 -24 22 4 7 26
51 51 62 35 3 -6 1 -8 -4 -5 -6 4 -13 0 -16 -8 -4 -9 -1 -12 9 -8 9 3 14 -1
14 -12 0 -9 -4 -14 -9 -11 -5 3 -11 -1 -14 -8 -5 -13 0 -13 39 -1 47 14 55 11
27 -11 -16 -12 -14 -13 11 -4 16 6 31 8 34 5 3 -3 0 -5 -6 -5 -7 0 -12 -4 -12
-10 0 -14 27 -12 33 3 4 7 6 6 6 -5 1 -9 -5 -18 -11 -20 -17 -6 9 -33 40 -42
12 -4 22 -11 22 -16 0 -5 8 -16 17 -26 16 -16 16 -16 -5 -10 -13 5 -22 3 -22
-3 0 -6 6 -11 14 -11 20 0 25 -57 9 -91 -10 -21 -17 -25 -39 -21 -19 3 -22 7
-12 13 9 6 6 9 -11 9 -23 0 -23 -1 -7 -19 17 -18 17 -19 -1 -24 -17 -4 -17 -5
0 -6 12 -1 16 -6 11 -13 -4 -7 -4 -10 1 -6 9 8 40 -20 31 -29 -3 -3 -12 -1
-19 6 -10 7 -23 8 -38 3 -23 -9 -23 -10 10 -17 32 -7 34 -8 16 -21 -14 -10
-22 -11 -32 -2 -7 6 -16 8 -20 4 -3 -3 -1 -6 5 -6 7 0 12 -7 12 -17 0 -14 -2
-14 -20 2 -20 18 -20 18 -18 -1 2 -10 -1 -19 -7 -19 -5 0 -9 7 -8 15 2 10 0
11 -3 2 -3 -6 -10 -9 -16 -6 -6 4 -5 -3 1 -15 13 -24 4 -52 -9 -30 -5 7 -15
14 -24 15 -21 3 -65 37 -66 51 0 6 -5 15 -12 19 -6 4 -8 3 -5 -3 4 -6 -3 -13
-14 -16 -12 -3 -18 -10 -15 -15 3 -6 15 -8 25 -5 13 3 24 -2 33 -16 7 -12 20
-21 29 -21 21 0 58 -40 38 -41 -8 -1 -18 0 -24 1 -45 9 -45 9 -35 -11 6 -10 7
-19 3 -18 -27 5 -53 -2 -47 -13 4 -7 3 -8 -4 -4 -6 4 -42 -6 -79 -22 -93 -41
-155 -52 -313 -58 -74 -3 -166 -10 -204 -15 -73 -10 -141 -4 -191 17 -50 21
-121 78 -118 94 3 13 -56 90 -69 90 -2 0 -5 -7 -5 -15 0 -8 4 -15 9 -15 5 0
16 -7 24 -15 9 -9 11 -15 4 -15 -6 0 -8 -5 -5 -10 4 -6 10 -8 15 -5 5 3 7 -4
5 -16 -4 -19 19 -54 34 -54 3 0 23 -13 43 -28 20 -16 58 -34 85 -41 26 -7 59
-16 72 -21 14 -4 21 -3 18 2 -3 5 8 7 25 5 l31 -5 -34 -28 c-20 -17 -41 -26
-51 -23 -13 4 -18 0 -18 -16 l0 -22 -21 23 c-11 13 -18 18 -14 11 4 -7 1 -19
-5 -27 -10 -12 -9 -15 7 -15 10 0 28 -7 39 -15 18 -14 18 -14 -8 -15 -16 0
-28 5 -28 10 0 6 -6 10 -14 10 -7 0 -19 6 -25 14 -9 11 -8 14 6 12 10 0 18 6
18 14 0 9 -9 15 -22 14 -13 0 -21 2 -18 5 9 8 -56 32 -68 24 -5 -3 -7 -1 -4 4
4 6 -1 17 -11 24 -14 11 -15 11 -5 0 6 -7 9 -19 6 -27 -3 -9 -11 -6 -28 12
-16 17 -38 27 -72 31 -56 6 -100 38 -82 60 6 7 8 13 4 13 -5 0 0 10 11 22 13
15 13 18 3 10 -12 -9 -24 -10 -44 -2 -25 9 -26 13 -21 51 5 38 4 40 -11 28
-12 -10 -15 -10 -9 -1 4 7 2 38 -4 68 -7 32 -8 59 -3 63 5 3 8 15 8 26 0 11 3
25 8 32 7 9 1 9 -25 0 -18 -7 -36 -16 -39 -21 -4 -4 -9 -3 -13 2 -4 6 2 15 11
21 14 8 15 10 3 11 -13 0 -13 1 0 10 8 5 22 10 30 10 13 0 13 -1 0 -10 -8 -5
-11 -12 -7 -17 11 -10 27 17 20 34 -3 7 -9 10 -14 7 -6 -3 -17 0 -25 7 -8 7
-14 8 -12 3 1 -5 -4 -24 -11 -42 -12 -28 -12 -35 -1 -42 7 -4 10 -17 8 -28 -4
-14 -2 -19 7 -16 7 3 11 13 8 24 -3 10 1 21 8 26 9 5 11 2 6 -9 -3 -9 -2 -19
3 -22 6 -4 10 3 10 14 0 12 4 21 9 21 16 0 0 -40 -20 -51 -11 -5 -19 -17 -19
-27 0 -15 2 -15 10 -2 7 11 9 3 5 -26 -3 -27 1 -53 11 -73 8 -17 13 -35 10
-40 -3 -5 1 -12 10 -15 9 -4 14 -13 10 -21 -3 -8 -1 -14 5 -12 6 1 18 -9 27
-23 l16 -25 -24 20 c-17 15 -15 8 10 -22 27 -35 44 -46 91 -59 32 -9 60 -23
63 -31 7 -18 -10 -53 -26 -53 -6 0 1 -11 17 -24 16 -14 23 -26 17 -30 -6 -3
-13 -2 -17 4 -3 5 -11 10 -18 10 -6 0 -2 -6 9 -14 12 -9 23 -11 30 -5 6 5 13
6 16 4 10 -10 69 -24 63 -15 -3 4 -17 11 -32 15 -43 10 -54 23 -41 45 7 10 16
16 21 13 4 -3 0 -11 -10 -19 -16 -12 -16 -13 -1 -14 24 0 31 16 17 39 -12 19
-13 18 -30 -3 -22 -26 -25 -9 -4 21 17 24 45 21 46 -6 0 -12 2 -11 8 4 8 20 8
20 13 0 5 -16 6 -17 7 -2 1 22 18 22 30 -1 26 -49 138 -101 156 -72 3 5 0 7
-9 4 -19 -7 -15 19 7 44 9 10 17 24 17 30 0 7 15 13 33 14 54 2 58 3 65 13 16
23 58 42 77 35 11 -4 30 -3 43 1 13 5 41 9 63 9 21 0 39 4 39 8 0 4 20 9 45
10 25 1 54 6 65 12 10 5 30 10 43 10 13 0 69 14 123 31 144 44 148 45 141 26
-3 -9 0 -20 7 -24 7 -5 16 -17 19 -27 6 -16 5 -17 -8 -6 -20 16 -19 -1 1 -26
8 -10 13 -13 9 -6 -3 6 -2 12 3 12 11 0 22 -36 14 -45 -10 -9 -9 -44 0 -39 5
4 7 13 4 21 -4 9 -1 13 6 11 7 -3 14 -10 14 -16 5 -42 7 -44 15 -15 8 28 5 39
-23 85 -18 29 -36 55 -40 56 -5 2 -5 8 -2 13 3 6 1 16 -6 23 -8 11 -3 19 25
36 19 12 41 27 48 33 25 23 76 57 87 57 5 0 10 4 10 8 0 5 9 17 19 29 25 26
44 93 28 93 -7 0 -4 5 6 11 9 6 15 14 13 18 -3 4 -7 34 -10 67 -4 66 -20 114
-36 114 -6 0 -9 -4 -5 -9 3 -5 1 -12 -4 -15 -12 -8 -34 20 -28 36 3 8 6 5 6
-6 1 -15 4 -16 16 -6 13 11 11 17 -21 46 -21 18 -61 45 -90 60 -29 15 -51 31
-48 36 9 13 97 9 127 -7 16 -8 25 -9 21 -3 -5 8 -1 9 12 4 10 -4 33 -10 49
-13 58 -11 139 -54 206 -108 37 -30 75 -55 85 -55 12 0 15 -6 11 -21 -3 -13
-1 -19 6 -16 7 3 11 10 10 16 -5 19 8 12 49 -29 37 -38 39 -44 34 -83 -3 -23
-5 -45 -5 -49 -1 -5 -6 -8 -11 -8 -6 0 -20 -9 -32 -20 -12 -10 -24 -18 -27
-15 -4 2 -13 0 -21 -6 -11 -6 -5 -8 18 -5 17 2 32 1 32 -2 0 -9 -53 -62 -61
-62 -4 0 -22 -14 -41 -31 -65 -60 -66 -61 -73 -50 -3 6 -12 11 -18 10 -9 0 -9
-2 1 -6 23 -9 12 -20 -35 -38 -27 -10 -52 -21 -58 -26 -19 -14 -130 -38 -175
-37 -33 1 -52 8 -72 27 -35 31 -37 13 -2 -24 24 -26 29 -27 89 -22 180 17 398
141 485 277 56 87 38 168 -48 216 -26 15 -91 54 -145 87 -141 86 -216 109
-352 112 -81 2 -119 7 -143 19 -34 17 -149 51 -232 67 -25 5 -65 13 -89 18
-25 5 -75 8 -113 6 -37 -1 -66 0 -64 4 2 3 -24 7 -57 8 -43 2 -66 8 -73 18 -8
11 -20 14 -37 10 -16 -5 -26 -2 -30 8 -5 13 -15 12 -73 -3 -37 -10 -70 -23
-74 -30 -5 -8 -9 -7 -14 5 -9 23 -8 26 7 24 24 -3 38 1 33 10 -8 13 -88 12
-105 -2 -12 -9 -13 -9 -7 1 4 6 3 12 -3 12 -5 0 -13 -5 -16 -10z m70 -20 c-10
-12 -25 -18 -32 -16 -7 3 -15 0 -19 -6 -5 -7 -2 -8 7 -3 11 6 11 5 3 -5 -7 -7
-21 -9 -34 -5 -19 6 -17 9 22 30 55 31 78 33 53 5z m1015 -220 c0 -5 -4 -10
-9 -10 -6 0 -13 5 -16 10 -3 6 1 10 9 10 9 0 16 -4 16 -10z m124 -321 c-12
-14 -19 -15 -29 -6 -17 16 -11 25 20 25 24 0 25 -2 9 -19z m-689 -329 c-22 -5
-51 -9 -65 -9 -22 0 -23 1 -5 8 11 4 40 8 65 8 l45 1 -40 -8z"/>
<path d="M2550 1285 c7 -9 15 -13 17 -11 7 7 -7 26 -19 26 -6 0 -6 -6 2 -15z"/>
<path d="M2586 1285 c-3 -8 -1 -15 4 -15 6 0 10 7 10 15 0 8 -2 15 -4 15 -2 0
-6 -7 -10 -15z"/>
<path d="M2473 1282 c-9 -6 -7 -11 7 -20 16 -10 20 -10 18 0 -2 7 2 12 9 13 6
0 15 3 19 8 10 9 -37 9 -53 -1z"/>
<path d="M1094 1248 l-19 -23 23 19 c21 18 27 26 19 26 -2 0 -12 -10 -23 -22z"/>
<path d="M2711 1265 c1 -19 18 -51 18 -35 0 8 -4 22 -9 30 -5 8 -9 11 -9 5z"/>
<path d="M2747 1263 c-2 -5 -1 -17 3 -27 6 -19 7 -19 12 2 6 21 -6 40 -15 25z"/>
<path d="M2790 1263 c0 -7 4 -14 10 -18 5 -3 7 -12 3 -20 -3 -8 -3 -15 0 -15
13 0 13 28 1 45 -8 10 -14 14 -14 8z"/>
<path d="M2947 1264 c-6 -10 9 -42 16 -34 3 3 1 14 -3 24 -3 11 -9 15 -13 10z"/>
<path d="M2354 1235 c-8 -19 4 -36 24 -34 10 1 28 -2 42 -8 14 -5 48 -11 77
-12 28 -1 66 -6 84 -11 17 -5 36 -7 41 -4 5 3 16 -2 23 -12 13 -18 14 -17 8 5
-5 19 -3 22 8 15 8 -5 34 -9 59 -10 25 -1 45 -3 45 -4 0 -2 32 -7 80 -13 14
-2 28 -7 32 -10 10 -11 25 -8 18 3 -12 19 7 10 26 -12 10 -13 18 -18 19 -11 0
6 -6 14 -12 16 -7 3 -3 6 9 6 13 1 24 -7 28 -19 7 -22 20 -26 31 -8 4 6 3 8
-4 4 -6 -3 -13 -2 -17 4 -3 5 1 10 9 10 18 0 22 25 6 35 -6 3 -7 -1 -4 -9 4
-11 0 -16 -10 -16 -9 0 -16 4 -16 8 0 4 -15 9 -33 10 -18 1 -44 5 -57 7 -47
10 -85 15 -134 19 -27 2 -52 10 -57 17 -6 10 -9 11 -9 1 0 -9 -13 -11 -47 -6
-27 3 -79 7 -118 10 -38 2 -83 6 -100 8 -16 2 -34 5 -39 5 -4 1 -6 8 -2 16 3
8 3 15 0 15 -2 0 -7 -7 -10 -15z"/>
<path d="M2315 1219 c-4 -6 -4 -13 -1 -16 3 -4 6 -1 6 6 0 7 5 9 10 6 6 -3 10
-1 10 4 0 14 -17 14 -25 0z"/>
<path d="M2275 1210 c3 -5 10 -10 16 -10 5 0 9 5 9 10 0 6 -7 10 -16 10 -8 0
-12 -4 -9 -10z"/>
<path d="M1234 1189 c-3 -6 -1 -16 4 -21 8 -8 11 -5 9 11 -1 24 -3 25 -13 10z"/>
<path d="M2273 1183 c9 -2 23 -2 30 0 6 3 -1 5 -18 5 -16 0 -22 -2 -12 -5z"/>
<path d="M1527 1169 c-44 -12 -58 -29 -55 -65 1 -18 6 -32 11 -31 16 3 29 -57
14 -68 -16 -14 -19 -31 -4 -33 7 -1 24 -3 40 -6 31 -5 33 0 13 23 -10 11 -12
21 -6 31 8 13 10 12 10 -2 0 -9 4 -19 9 -22 10 -7 -10 69 -22 80 -4 4 -7 16
-7 26 0 18 -1 18 -16 4 -23 -24 -27 -19 -8 9 16 25 29 31 37 18 2 -5 3 -3 1 3
-1 6 2 17 7 25 7 11 9 11 9 1 0 -8 5 -10 13 -5 6 4 21 9 31 10 34 6 28 11 -11
11 -21 0 -51 -4 -66 -9z m0 -156 c-4 -3 -2 -12 4 -20 13 -14 9 -16 -15 -7 -13
5 -14 9 -5 20 6 8 14 14 17 14 3 0 2 -3 -1 -7z"/>
<path d="M2278 1163 c7 -3 16 -2 19 1 4 3 -2 6 -13 5 -11 0 -14 -3 -6 -6z"/>
<path d="M2456 1151 c-4 -5 3 -7 14 -4 23 6 26 13 6 13 -8 0 -17 -4 -20 -9z"/>
<path d="M1651 1116 c-19 -30 -22 -47 -19 -86 5 -47 33 -108 45 -96 4 3 -1 14
-10 24 -22 24 -21 30 6 34 31 4 37 53 8 63 -12 3 -26 3 -32 -1 -15 -9 -1 36
18 58 8 9 13 22 11 29 -2 7 -15 -4 -27 -25z m16 -98 c-3 -7 -5 -2 -5 12 0 14
2 19 5 13 2 -7 2 -19 0 -25z"/>
<path d="M1606 1118 c-8 -13 -17 -39 -20 -58 -6 -34 0 -27 18 20 3 8 13 25 22
38 10 13 12 22 5 22 -6 0 -17 -10 -25 -22z"/>
<path d="M2610 1128 c0 -9 139 -78 159 -78 5 0 11 -5 13 -12 3 -7 7 -5 11 6 4
9 3 15 -2 12 -5 -3 -14 1 -21 9 -7 8 -16 12 -21 9 -5 -3 -9 0 -9 6 0 6 -4 9
-9 6 -4 -3 -34 7 -65 23 -31 16 -56 25 -56 19z"/>
<path d="M1690 1123 c0 -5 12 -37 25 -73 14 -36 22 -50 18 -30 -4 19 -7 46 -7
60 0 14 -6 31 -13 38 -13 14 -23 16 -23 5z"/>
<path d="M2551 1126 c2 -2 15 -9 29 -15 24 -11 24 -11 6 3 -16 13 -49 24 -35
12z"/>
<path d="M2800 1123 c0 -4 5 -15 10 -23 8 -13 10 -13 10 2 0 9 -4 20 -10 23
-5 3 -10 3 -10 -2z"/>
<path d="M2498 1103 c7 -3 16 -2 19 1 4 3 -2 6 -13 5 -11 0 -14 -3 -6 -6z"/>
<path d="M2850 1100 c0 -5 5 -10 11 -10 5 0 7 5 4 10 -3 6 -8 10 -11 10 -2 0
-4 -4 -4 -10z"/>
<path d="M946 1083 c-6 -14 -5 -15 5 -6 7 7 10 15 7 18 -3 3 -9 -2 -12 -12z"/>
<path d="M2610 1096 c0 -3 14 -12 30 -21 17 -9 30 -13 30 -11 0 3 -13 12 -30
21 -16 9 -30 13 -30 11z"/>
<path d="M2097 1056 c-10 -8 -26 -12 -36 -9 -21 5 -36 -11 -26 -27 5 -8 11 -7
20 0 8 7 23 9 35 5 25 -8 51 11 43 31 -6 17 -13 17 -36 0z"/>
<path d="M2856 1045 c-3 -9 1 -18 9 -21 8 -4 12 -11 8 -17 -3 -6 -1 -7 5 -3 9
5 9 13 1 29 -16 30 -16 30 -23 12z"/>
<path d="M891 1034 c0 -11 3 -14 6 -6 3 7 2 16 -1 19 -3 4 -6 -2 -5 -13z"/>
<path d="M2714 1025 c13 -10 15 -15 6 -15 -7 0 -11 -3 -7 -6 3 -3 11 -3 17 1
13 8 -5 35 -24 35 -6 0 -2 -7 8 -15z"/>
<path d="M1591 1004 c0 -11 3 -14 6 -6 3 7 2 16 -1 19 -3 4 -6 -2 -5 -13z"/>
<path d="M1701 972 c-7 -24 -10 -49 -8 -55 2 -7 10 7 16 31 7 24 10 49 8 55
-2 7 -10 -7 -16 -31z"/>
<path d="M2050 995 c-9 -11 -10 -19 -3 -26 7 -7 14 -5 23 6 10 12 10 15 -1 15
-11 0 -11 2 1 10 8 5 10 10 4 10 -6 0 -17 -7 -24 -15z"/>
<path d="M2090 999 c0 -5 5 -9 11 -9 5 0 -3 -11 -18 -25 -22 -19 -24 -24 -10
-25 9 0 17 7 17 15 0 8 4 15 8 15 13 0 8 -48 -6 -62 -9 -9 -13 -7 -18 5 -3 9
-10 14 -15 11 -5 -3 -9 1 -10 8 0 7 -6 0 -13 -16 -8 -18 -16 -24 -20 -17 -4 6
-11 11 -16 11 -14 0 2 -44 25 -68 19 -18 27 -21 48 -13 19 8 27 6 31 -5 4 -10
-3 -14 -29 -14 -22 0 -35 -5 -35 -13 0 -8 -11 -24 -25 -37 -31 -29 -33 -45 -4
-29 17 9 20 8 14 -2 -6 -9 -2 -11 16 -6 22 5 22 5 6 -7 -15 -12 -16 -14 -2
-20 8 -3 15 -1 15 5 0 6 5 7 10 4 6 -3 10 -1 10 5 0 6 8 4 17 -6 16 -15 17
-15 24 2 8 23 1 34 -10 15 -6 -10 -10 -9 -15 4 -3 9 -10 13 -16 10 -6 -4 -7 1
-3 12 6 15 4 16 -9 5 -10 -8 -19 -9 -22 -3 -4 5 3 16 14 24 11 7 17 17 13 20
-3 4 4 7 16 7 12 0 24 -7 27 -15 4 -8 10 -12 16 -9 5 3 1 13 -9 21 -17 13 -17
14 0 9 11 -4 17 0 17 10 0 10 -6 14 -15 10 -8 -3 -15 -1 -15 4 0 6 7 10 16 10
21 0 13 23 -9 26 -9 1 -15 -2 -11 -7 3 -5 1 -9 -5 -9 -5 0 -13 5 -17 11 -5 8
-10 6 -16 -5 -7 -13 -12 -14 -28 -3 -24 14 -27 32 -4 23 8 -3 13 -2 10 3 -3 5
1 12 10 15 24 9 31 7 14 -4 -9 -6 -10 -10 -3 -10 6 0 15 5 18 10 4 6 11 8 16
5 5 -4 9 0 9 7 0 10 3 9 11 -2 8 -11 9 -8 4 15 -4 16 -7 34 -8 39 -1 4 4 11
11 13 7 3 12 -4 12 -16 0 -11 5 -23 11 -27 12 -7 6 -205 -8 -240 -4 -11 -2
-15 4 -11 6 4 18 27 27 52 8 25 11 43 5 40 -5 -4 -9 12 -9 35 0 25 4 39 10 35
6 -3 9 4 8 19 -1 13 -6 22 -12 19 -5 -4 -7 7 -3 25 5 24 1 38 -18 61 -14 16
-25 33 -25 38 0 5 -9 9 -20 10 -11 1 -20 -2 -20 -8z"/>
<path d="M2754 1001 c7 -11 46 -35 46 -28 0 3 -12 12 -26 22 -15 9 -23 12 -20
6z"/>
<path d="M2905 999 c-4 -6 -4 -13 -1 -16 3 -4 6 -1 6 6 0 7 5 9 10 6 6 -3 10
-1 10 4 0 14 -17 14 -25 0z"/>
<path d="M1570 971 c0 -6 4 -13 10 -16 6 -3 7 1 4 9 -7 18 -14 21 -14 7z"/>
<path d="M2810 966 c0 -3 9 -10 20 -16 11 -6 20 -8 20 -6 0 3 -9 10 -20 16
-11 6 -20 8 -20 6z"/>
<path d="M1490 956 c0 -2 7 -6 15 -10 8 -3 15 -1 15 4 0 6 -7 10 -15 10 -8 0
-15 -2 -15 -4z"/>
<path d="M1906 939 c3 -5 0 -9 -7 -9 -7 0 -10 -2 -7 -5 3 -3 16 -2 28 3 l24 9
-22 5 c-12 4 -20 2 -16 -3z"/>
<path d="M887 933 c-4 -3 -7 -16 -6 -27 0 -19 1 -19 10 3 10 24 8 36 -4 24z"/>
<path d="M1522 928 c-7 -7 -12 -19 -11 -27 0 -11 3 -10 9 4 9 20 9 20 10 0 1
-11 4 -14 7 -7 7 19 26 14 19 -5 -5 -15 -3 -14 9 2 10 12 12 21 5 23 -5 2 -7
9 -4 15 5 8 2 8 -7 0 -16 -15 -33 -17 -24 -3 8 14 2 13 -13 -2z"/>
<path d="M1610 923 c0 -5 12 -21 28 -35 20 -19 33 -23 52 -18 24 6 24 6 -7 13
-22 4 -33 12 -33 23 0 10 -3 14 -7 11 -3 -4 -12 -2 -20 4 -7 6 -13 7 -13 2z"/>
<path d="M2608 916 c-16 -12 -14 -13 15 -13 17 0 24 2 14 4 -9 3 -15 9 -12 14
8 12 3 11 -17 -5z"/>
<path d="M2337 904 c4 -10 10 -11 24 -3 25 13 24 17 -5 17 -16 0 -23 -5 -19
-14z"/>
<path d="M990 886 c19 -13 37 -22 38 -21 8 7 -39 45 -55 45 -12 0 -6 -8 17
-24z"/>
<path d="M2226 863 c8 -46 10 -49 27 -35 7 6 18 7 26 3 9 -6 10 -11 2 -15 -6
-4 -15 -5 -20 -1 -9 5 -41 -31 -41 -47 0 -5 9 -8 20 -8 11 0 20 7 20 16 0 8 5
12 10 9 6 -3 10 -1 10 6 0 6 8 9 20 6 16 -4 18 -2 10 13 -7 13 -7 21 0 25 19
12 9 24 -36 45 -26 11 -48 20 -51 20 -2 0 -1 -17 3 -37z m83 -19 c3 -4 -2 -4
-12 -1 -10 4 -27 7 -38 7 -10 0 -19 4 -19 9 0 10 58 -3 69 -15z"/>
<path d="M877 860 c3 -11 7 -20 9 -20 2 0 4 9 4 20 0 11 -4 20 -9 20 -5 0 -7
-9 -4 -20z"/>
<path d="M941 873 c-1 -15 36 -36 52 -29 7 2 4 5 -5 5 -10 1 -18 6 -18 12 0 5
-4 8 -9 5 -5 -4 -12 0 -14 6 -4 10 -6 10 -6 1z"/>
<path d="M1040 865 c0 -8 5 -15 10 -15 6 0 10 7 10 15 0 8 -4 15 -10 15 -5 0
-10 -7 -10 -15z"/>
<path d="M2745 860 c-3 -5 1 -10 10 -10 9 0 13 5 10 10 -3 6 -8 10 -10 10 -2
0 -7 -4 -10 -10z"/>
<path d="M1074 844 c-18 -14 -18 -15 4 -4 12 6 22 13 22 15 0 8 -5 6 -26 -11z"/>
<path d="M1788 853 c7 -3 16 -2 19 1 4 3 -2 6 -13 5 -11 0 -14 -3 -6 -6z"/>
<path d="M2334 843 c1 -24 18 -33 44 -26 27 7 29 23 3 23 -11 0 -23 5 -26 10
-10 16 -23 12 -21 -7z m31 -13 c3 -5 1 -10 -4 -10 -6 0 -11 5 -11 10 0 6 2 10
4 10 3 0 8 -4 11 -10z"/>
<path d="M862 830 c0 -14 2 -19 5 -12 2 6 2 18 0 25 -3 6 -5 1 -5 -13z"/>
<path d="M2775 840 c-3 -6 1 -7 9 -4 18 7 21 14 7 14 -6 0 -13 -4 -16 -10z"/>
<path d="M1092 833 c-7 -2 -17 -14 -23 -26 -9 -19 -8 -20 3 -6 7 9 18 14 24
12 6 -2 11 3 11 12 0 8 -1 15 -1 14 -1 0 -7 -3 -14 -6z"/>
<path d="M2925 830 c-3 -5 -1 -10 4 -10 6 0 11 5 11 10 0 6 -2 10 -4 10 -3 0
-8 -4 -11 -10z"/>
<path d="M1110 799 c-13 -7 -13 -9 0 -9 13 0 13 -2 0 -9 -8 -6 -17 -8 -21 -5
-4 2 -5 -10 -2 -27 3 -20 0 -35 -9 -40 -10 -7 -10 -11 0 -21 9 -9 12 -9 13 3
1 7 4 1 8 -16 4 -17 13 -29 20 -27 9 2 11 -3 8 -13 -4 -8 -2 -15 3 -15 17 0
11 36 -9 61 -21 27 -18 72 6 101 16 18 4 31 -17 17z m7 -141 c-3 -8 -6 -5 -6
6 -1 11 2 17 5 13 3 -3 4 -12 1 -19z"/>
<path d="M1370 799 c0 -5 5 -7 10 -4 6 3 10 8 10 11 0 2 -4 4 -10 4 -5 0 -10
-5 -10 -11z"/>
<path d="M1616 798 c3 -5 10 -6 15 -3 13 9 11 12 -6 12 -8 0 -12 -4 -9 -9z"/>
<path d="M2340 796 c0 -8 51 -13 56 -5 3 5 -9 9 -25 9 -17 0 -31 -2 -31 -4z"/>
<path d="M2665 790 c-3 -5 -2 -10 4 -10 5 0 13 5 16 10 3 6 2 10 -4 10 -5 0
-13 -4 -16 -10z"/>
<path d="M2931 784 c0 -11 3 -14 6 -6 3 7 2 16 -1 19 -3 4 -6 -2 -5 -13z"/>
<path d="M2745 770 c-16 -17 -16 -20 -3 -15 9 4 19 13 22 21 7 19 2 18 -19 -6z"/>
<path d="M1647 754 c-15 -14 -27 -33 -27 -43 0 -10 -13 -30 -30 -44 -30 -27
-39 -47 -20 -47 7 0 7 -7 0 -20 -5 -11 -15 -29 -20 -40 -8 -16 -7 -20 6 -20 9
0 12 -5 8 -12 -5 -8 -13 -4 -26 11 -10 13 -18 19 -18 13 0 -6 -3 -18 -7 -28
-4 -12 -3 -15 5 -10 7 4 12 1 12 -7 0 -8 8 -21 18 -30 21 -19 62 -23 62 -6 0
6 -7 9 -15 5 -17 -6 -17 -6 -20 47 -1 22 2 37 9 37 7 0 12 8 12 18 2 40 14 85
27 100 8 10 18 26 21 38 4 12 18 26 32 33 32 14 65 6 57 -15 -3 -9 1 -14 13
-14 16 0 17 2 4 10 -10 6 1 8 35 5 34 -2 44 -1 30 5 -11 5 -32 9 -47 9 -14 1
-28 6 -30 11 -2 6 -17 13 -34 15 -22 3 -38 -3 -57 -21z"/>
<path d="M2092 768 c3 -7 12 -14 22 -14 13 -2 13 -1 1 3 -8 2 -13 9 -10 14 4
5 1 9 -5 9 -7 0 -10 -6 -8 -12z"/>
<path d="M1140 760 c-8 -5 -12 -12 -9 -15 4 -3 12 1 19 10 14 17 11 19 -10 5z"/>
<path d="M2690 750 c-13 -8 -13 -10 2 -10 9 0 20 5 23 10 8 13 -5 13 -25 0z"/>
<path d="M2918 737 c-3 -19 -2 -25 4 -19 6 6 8 18 6 28 -3 14 -5 12 -10 -9z"/>
<path d="M1152 733 c-5 -10 -6 -29 -2 -43 6 -21 7 -19 11 18 5 47 4 50 -9 25z"/>
<path d="M1570 741 c0 -10 19 -25 25 -20 1 2 -3 10 -11 17 -8 7 -14 8 -14 3z"/>
<path d="M1882 728 c4 -16 37 -37 58 -37 11 0 10 4 -5 15 -37 28 -56 36 -53
22z"/>
<path d="M1641 690 c-12 -17 -21 -37 -19 -43 2 -7 13 7 25 30 26 51 25 54 -6
13z"/>
<path d="M1670 690 c-12 -17 -20 -34 -17 -37 3 -3 15 9 25 26 l19 32 17 -50
c20 -62 20 -81 0 -109 -13 -19 -13 -22 0 -22 8 0 18 10 22 23 10 30 12 87 3
81 -5 -2 -11 11 -15 30 -10 54 -28 63 -54 26z"/>
<path d="M2590 683 c-25 -19 -47 -36 -48 -38 -7 -6 23 1 36 8 7 5 12 3 12 -4
0 -7 6 -5 13 6 8 10 18 16 23 13 5 -3 23 1 39 8 l30 13 -33 1 c-23 0 -31 -4
-26 -12 4 -7 3 -8 -5 -4 -9 6 -9 11 0 22 23 28 4 22 -41 -13z"/>
<path d="M2957 713 c-4 -3 -7 -11 -7 -17 0 -6 5 -5 12 2 6 6 9 14 7 17 -3 3
-9 2 -12 -2z"/>
<path d="M1569 700 c-1 -8 -1 -19 0 -25 1 -5 -6 -1 -15 10 -13 16 -15 16 -11
3 3 -10 2 -20 -3 -23 -7 -4 -7 -26 0 -45 1 -3 2 -14 1 -25 -2 -16 0 -17 8 -5
6 8 8 25 4 37 -3 16 1 28 16 41 15 12 18 21 11 32 -9 13 -10 13 -11 0z"/>
<path d="M2852 671 c-6 -17 -9 -31 -6 -31 7 0 25 52 20 57 -2 2 -8 -10 -14
-26z"/>
<path d="M2885 673 c-9 -16 -44 -55 -79 -88 -34 -33 -50 -49 -35 -36 16 14 32
20 40 16 7 -5 10 -4 6 2 -3 5 10 25 29 44 32 30 71 89 60 89 -2 0 -11 -12 -21
-27z"/>
<path d="M2058 679 c-13 -7 -15 -15 -8 -34 6 -16 5 -25 -3 -28 -23 -9 8 -26
57 -32 43 -5 47 -4 36 10 -7 9 -20 13 -28 10 -18 -7 -44 13 -36 27 4 6 0 14
-7 19 -11 8 -10 12 5 24 22 17 10 20 -16 4z"/>
<path d="M1735 671 c-3 -5 -1 -12 5 -16 5 -3 10 1 10 9 0 18 -6 21 -15 7z"/>
<path d="M1644 592 c7 -51 20 -78 45 -91 13 -7 18 -6 18 4 0 8 -3 12 -7 10 -3
-2 -14 9 -24 26 -17 28 -17 29 3 29 26 0 42 29 30 52 -7 13 -20 18 -40 16 -31
-2 -31 -3 -25 -46z m43 8 c-2 -24 -17 -15 -17 11 0 11 4 18 9 14 6 -3 9 -14 8
-25z"/>
<path d="M2660 620 c-8 -5 -12 -11 -10 -14 3 -2 14 2 24 10 22 15 10 19 -14 4z"/>
<path d="M1621 582 c-1 -28 26 -82 41 -82 7 0 5 7 -5 18 -8 9 -20 33 -25 52
-8 26 -10 29 -11 12z"/>
<path d="M1080 585 c0 -5 5 -17 10 -25 5 -8 10 -10 10 -5 0 6 -5 17 -10 25 -5
8 -10 11 -10 5z"/>
<path d="M2931 554 c0 -11 3 -14 6 -6 3 7 2 16 -1 19 -3 4 -6 -2 -5 -13z"/>
<path d="M1905 550 c-3 -5 -1 -10 4 -10 6 0 11 5 11 10 0 6 -2 10 -4 10 -3 0
-8 -4 -11 -10z"/>
<path d="M2826 543 c-6 -14 -5 -15 5 -6 7 7 10 15 7 18 -3 3 -9 -2 -12 -12z"/>
<path d="M2498 543 c7 -3 16 -2 19 1 4 3 -2 6 -13 5 -11 0 -14 -3 -6 -6z"/>
<path d="M2870 543 c0 -5 -10 -15 -22 -21 -13 -6 -18 -11 -12 -11 16 -1 50 27
41 35 -4 4 -7 3 -7 -3z"/>
<path d="M2890 539 c0 -5 5 -7 10 -4 6 3 10 8 10 11 0 2 -4 4 -10 4 -5 0 -10
-5 -10 -11z"/>
<path d="M1595 530 c3 -5 8 -10 11 -10 2 0 4 5 4 10 0 6 -5 10 -11 10 -5 0 -7
-4 -4 -10z"/>
<path d="M2709 513 c-13 -16 -12 -17 4 -4 16 13 21 21 13 21 -2 0 -10 -8 -17
-17z"/>
<path d="M2786 513 c2 -6 -2 -14 -9 -16 -7 -2 -9 -7 -6 -11 3 -3 14 4 25 16
10 12 14 18 7 15 -6 -4 -13 -4 -16 0 -2 5 -2 3 -1 -4z"/>
<path d="M1580 510 c0 -5 5 -10 11 -10 5 0 7 5 4 10 -3 6 -8 10 -11 10 -2 0
-4 -4 -4 -10z"/>
<path d="M2645 500 c-4 -6 1 -7 11 -3 12 4 15 3 10 -5 -5 -8 -2 -10 9 -5 13 5
14 7 3 14 -17 11 -26 11 -33 -1z"/>
<path d="M1083 480 c2 -8 12 -16 23 -17 13 -2 15 -1 4 4 -8 3 -19 11 -23 17
-6 7 -7 6 -4 -4z"/>
<path d="M1638 473 c-24 -6 -23 -19 2 -19 11 0 20 6 20 13 0 7 -1 12 -2 12 -2
-1 -11 -3 -20 -6z"/>
<path d="M2614 464 c-18 -14 -18 -14 6 -3 31 14 36 19 24 19 -6 0 -19 -7 -30
-16z"/>
<path d="M2158 443 c-2 -10 -2 -29 2 -43 3 -14 3 -39 -1 -57 -5 -23 -3 -36 7
-44 8 -6 11 -15 8 -20 -8 -14 21 -61 63 -100 38 -36 213 -173 213 -167 0 22
-64 157 -96 204 -11 16 -31 52 -44 79 -12 28 -25 44 -27 37 -3 -7 -3 -18 0
-25 2 -7 5 -16 7 -22 1 -5 7 -16 13 -24 10 -12 9 -13 -3 -6 -8 5 -21 10 -29
12 -8 1 -17 7 -21 13 -4 6 -15 8 -25 4 -14 -6 -17 -4 -12 9 3 9 1 19 -5 23 -7
5 -8 2 -3 -6 5 -8 3 -11 -5 -8 -21 7 -24 28 -3 28 15 0 15 2 3 9 -8 6 -18 7
-24 4 -5 -3 -6 -1 -2 6 4 6 11 9 16 6 4 -3 14 3 21 12 12 15 12 16 -1 8 -8 -5
-22 -10 -30 -12 -12 -1 -11 1 2 11 10 7 15 15 12 18 -3 3 -6 18 -8 34 -4 32
-21 43 -28 17z m91 -183 c64 -20 82 -32 94 -62 3 -10 11 -18 17 -18 5 0 10 -5
10 -11 0 -5 -13 -2 -29 7 -17 10 -27 22 -24 27 4 6 1 7 -6 2 -7 -4 -23 3 -39
16 -14 13 -20 16 -13 7 7 -10 10 -18 5 -18 -10 0 -92 69 -83 70 4 0 34 -9 68
-20z m81 -90 c30 -16 47 -29 37 -30 -11 0 -15 -4 -11 -12 4 -7 3 -8 -5 -4 -6
4 -9 12 -6 17 4 5 0 9 -8 9 -8 0 -35 11 -58 25 -63 36 -18 31 51 -5z m57 -57
c-4 -3 0 -15 10 -25 9 -11 11 -18 5 -18 -7 0 -12 5 -12 10 0 6 -7 10 -16 10
-14 0 -14 3 -4 15 7 8 15 15 18 15 3 0 2 -3 -1 -7z"/>
<path d="M1060 435 c14 -17 36 -20 45 -5 3 5 0 7 -8 4 -8 -3 -18 -1 -22 5 -3
6 -11 11 -17 11 -7 0 -6 -6 2 -15z"/>
<path d="M1206 437 c3 -10 9 -15 12 -12 3 3 0 11 -7 18 -10 9 -11 8 -5 -6z"/>
<path d="M2117 439 c7 -7 15 -10 18 -7 3 3 -2 9 -12 12 -14 6 -15 5 -6 -5z"/>
<path d="M2515 424 c-33 -12 -55 -23 -49 -23 18 -1 104 30 110 40 3 5 4 8 2 8
-2 -1 -30 -12 -63 -25z"/>
<path d="M2755 441 c-3 -5 -1 -12 5 -16 5 -3 10 1 10 9 0 18 -6 21 -15 7z"/>
<path d="M2712 420 c0 -14 2 -19 5 -12 2 6 2 18 0 25 -3 6 -5 1 -5 -13z"/>
<path d="M1190 421 c0 -6 4 -13 10 -16 6 -3 7 1 4 9 -7 18 -14 21 -14 7z"/>
<path d="M1225 410 c-3 -6 1 -13 10 -16 21 -9 26 -2 10 13 -9 8 -16 9 -20 3z"/>
<path d="M2395 403 c-11 -3 -24 -10 -30 -15 -7 -8 -4 -9 8 -4 10 3 33 6 50 6
24 0 28 3 17 10 -8 5 -17 9 -20 9 -3 -1 -14 -3 -25 -6z"/>
<path d="M2905 390 c-3 -5 1 -10 9 -10 9 0 16 5 16 10 0 6 -4 10 -9 10 -6 0
-13 -4 -16 -10z"/>
<path d="M2940 390 c0 -5 5 -10 11 -10 5 0 7 5 4 10 -3 6 -8 10 -11 10 -2 0
-4 -4 -4 -10z"/>
<path d="M2881 374 c0 -11 3 -14 6 -6 3 7 2 16 -1 19 -3 4 -6 -2 -5 -13z"/>
<path d="M2411 364 c0 -11 3 -14 6 -6 3 7 2 16 -1 19 -3 4 -6 -2 -5 -13z"/>
<path d="M2470 371 c0 -6 4 -13 10 -16 6 -3 7 1 4 9 -7 18 -14 21 -14 7z"/>
<path d="M2760 370 c20 -13 33 -13 25 0 -3 6 -14 10 -23 10 -15 0 -15 -2 -2
-10z"/>
<path d="M1304 358 c-4 -7 -3 -8 4 -4 7 4 12 3 12 -3 0 -5 9 -9 20 -8 11 1 20
5 20 10 0 5 -7 7 -15 3 -8 -3 -15 -1 -15 4 0 14 -17 12 -26 -2z"/>
<path d="M2808 343 c7 -3 16 -2 19 1 4 3 -2 6 -13 5 -11 0 -14 -3 -6 -6z"/>
<path d="M2891 304 c0 -11 3 -14 6 -6 3 7 2 16 -1 19 -3 4 -6 -2 -5 -13z"/>
<path d="M2471 294 c0 -11 3 -14 6 -6 3 7 2 16 -1 19 -3 4 -6 -2 -5 -13z"/>
<path d="M2522 290 c0 -14 2 -19 5 -12 2 6 2 18 0 25 -3 6 -5 1 -5 -13z"/>
<path d="M2268 283 c7 -3 16 -2 19 1 4 3 -2 6 -13 5 -11 0 -14 -3 -6 -6z"/>
<path d="M2435 280 c-3 -5 -1 -10 4 -10 6 0 11 5 11 10 0 6 -2 10 -4 10 -3 0
-8 -4 -11 -10z"/>
<path d="M2777 284 c-3 -3 -19 -7 -37 -9 -18 -3 -35 -7 -39 -11 -3 -4 7 -4 22
0 19 4 26 3 22 -4 -9 -14 7 -12 29 5 10 8 22 12 27 10 4 -3 10 -2 13 3 5 8
-29 14 -37 6z"/>
<path d="M2582 264 c10 -10 20 -16 22 -13 3 3 -5 11 -17 18 -21 13 -21 12 -5
-5z"/>
<path d="M2620 271 c0 -6 4 -13 10 -16 6 -3 7 1 4 9 -7 18 -14 21 -14 7z"/>
<path d="M1228 253 c7 -3 16 -2 19 1 4 3 -2 6 -13 5 -11 0 -14 -3 -6 -6z"/>
<path d="M2402 230 c0 -19 2 -27 5 -17 2 9 2 25 0 35 -3 9 -5 1 -5 -18z"/>
<path d="M2501 241 c-8 -14 -7 -20 4 -25 9 -3 19 3 25 17 11 22 11 22 -6 2
-16 -20 -16 -20 -11 3 6 27 1 28 -12 3z"/>
<path d="M2948 233 c5 -21 7 -23 10 -9 2 10 0 22 -6 28 -6 6 -7 0 -4 -19z"/>
<path d="M1260 245 c0 -11 30 -37 39 -33 5 2 -2 11 -15 21 -13 10 -24 15 -24
12z"/>
<path d="M1440 220 c0 -6 7 -10 15 -10 8 0 15 2 15 4 0 2 -7 6 -15 10 -8 3
-15 1 -15 -4z"/>
<path d="M2135 220 c-3 -5 -1 -10 4 -10 6 0 11 5 11 10 0 6 -2 10 -4 10 -3 0
-8 -4 -11 -10z"/>
<path d="M2465 220 c-3 -5 -1 -10 4 -10 6 0 11 5 11 10 0 6 -2 10 -4 10 -3 0
-8 -4 -11 -10z"/>
<path d="M2907 215 c-4 -8 -2 -17 3 -20 6 -4 10 3 10 14 0 25 -6 27 -13 6z"/>
<path d="M2425 200 c3 -5 8 -10 11 -10 2 0 4 5 4 10 0 6 -5 10 -11 10 -5 0 -7
-4 -4 -10z"/>
<path d="M1305 190 c-3 -6 1 -7 9 -4 18 7 21 14 7 14 -6 0 -13 -4 -16 -10z"/>
<path d="M2135 170 c3 -5 8 -10 11 -10 2 0 4 5 4 10 0 6 -5 10 -11 10 -5 0 -7
-4 -4 -10z"/>
<path d="M2730 153 c0 -10 6 -13 17 -9 9 4 20 1 25 -6 5 -9 8 -10 8 -1 0 13
-17 26 -37 29 -7 1 -13 -5 -13 -13z"/>
<path d="M2521 144 c0 -11 3 -14 6 -6 3 7 2 16 -1 19 -3 4 -6 -2 -5 -13z"/>
<path d="M2652 151 c-8 -4 -10 -15 -6 -26 7 -17 8 -16 16 5 10 27 7 32 -10 21z"/>
<path d="M2680 149 c0 -5 5 -7 10 -4 6 3 10 8 10 11 0 2 -4 4 -10 4 -5 0 -10
-5 -10 -11z"/>
<path d="M2853 144 c3 -3 23 -7 44 -10 21 -2 53 -6 71 -8 28 -4 32 -3 23 8 -8
9 -35 14 -78 15 -36 0 -64 -2 -60 -5z"/>
<path d="M2660 60 c0 -5 5 -10 11 -10 5 0 7 5 4 10 -3 6 -8 10 -11 10 -2 0 -4
-4 -4 -10z"/>
<path d="M2701 54 c0 -11 3 -14 6 -6 3 7 2 16 -1 19 -3 4 -6 -2 -5 -13z"/>
<path d="M2941 26 c-61 -22 -55 -33 8 -16 35 9 60 26 50 34 -2 1 -28 -7 -58
-18z"/>
<path d="M2756 12 c-3 -5 1 -9 9 -9 8 0 15 4 15 9 0 10 -17 10 -24 0z"/>
</g>
</svg>
