<?xml version="1.0" standalone="no"?>
<!DOCTYPE svg PUBLIC "-//W3C//DTD SVG 20010904//EN"
 "http://www.w3.org/TR/2001/REC-SVG-20010904/DTD/svg10.dtd">
<svg version="1.0" xmlns="http://www.w3.org/2000/svg"
 width="300.000000pt" height="168.000000pt" viewBox="0 0 300.000000 168.000000"
 preserveAspectRatio="xMidYMid meet">
<metadata>
Created by potrace 1.10, written by Peter Selinger 2001-2011
</metadata>
<g transform="translate(0.000000,168.000000) scale(0.100000,-0.100000)"
fill="#000000" stroke="none">
<path d="M575 1660 c10 -11 23 -20 29 -20 6 0 3 7 -6 14 -10 7 -15 16 -11 19
3 4 -2 7 -12 7 -17 0 -17 -1 0 -20z"/>
<path d="M645 1660 c-10 -11 -14 -20 -9 -20 5 0 15 9 22 20 7 11 11 20 9 20
-2 0 -12 -9 -22 -20z"/>
<path d="M713 1653 c2 -27 1 -28 -48 -26 l-50 2 39 -12 c21 -7 67 -10 105 -8
l66 5 -48 10 c-44 9 -48 12 -42 33 4 16 1 23 -9 23 -10 0 -14 -9 -13 -27z"/>
<path d="M949 1673 c-1 -5 -1 -16 0 -25 1 -9 -7 -19 -17 -22 -22 -7 -60 -46
-45 -46 21 0 72 57 70 78 -1 22 -6 29 -8 15z"/>
<path d="M1065 1648 c-21 -96 -9 -119 14 -26 13 56 13 58 2 58 -5 0 -12 -15
-16 -32z"/>
<path d="M1171 1639 c-24 -54 -45 -155 -37 -176 4 -8 13 -13 20 -10 8 3 20 -1
26 -9 16 -19 31 -18 23 2 -3 8 -17 20 -31 25 -23 9 -24 12 -18 62 4 28 16 72
27 96 10 24 17 46 14 49 -3 3 -13 -15 -24 -39z"/>
<path d="M1798 1621 c3 -41 -1 -69 -11 -91 -11 -21 -12 -30 -4 -27 30 10 45
77 31 146 -11 52 -21 35 -16 -28z"/>
<path d="M1848 1668 c-2 -7 -1 -33 3 -58 6 -44 6 -44 6 13 0 58 -2 67 -9 45z"/>
<path d="M1495 1640 c3 -5 8 -10 11 -10 2 0 4 5 4 10 0 6 -5 10 -11 10 -5 0
-7 -4 -4 -10z"/>
<path d="M1962 1587 c-24 -12 -43 -26 -42 -30 1 -4 -6 -19 -14 -33 -28 -42 3
-27 62 31 62 59 60 66 -6 32z m1 -22 c-3 -9 -8 -14 -10 -11 -3 3 -2 9 2 15 9
16 15 13 8 -4z"/>
<path d="M830 1594 c1 -21 49 -61 81 -67 96 -17 96 -17 69 -6 -78 34 -117 54
-132 67 -10 8 -18 11 -18 6z"/>
<path d="M1405 1569 c-57 -16 -91 -42 -131 -98 -54 -78 -89 -146 -109 -216
-10 -33 -20 -67 -23 -75 -2 -8 -6 -25 -8 -38 -1 -13 -8 -30 -14 -37 -6 -8 -11
-22 -10 -32 1 -10 1 -20 0 -23 -6 -15 -10 -53 -14 -120 -2 -49 -1 -58 3 -25 4
37 8 44 12 28 8 -27 -9 -111 -27 -138 -8 -11 -14 -29 -14 -42 0 -12 -4 -24 -9
-27 -10 -7 -6 -52 9 -90 5 -15 10 -29 10 -30 0 -2 -12 -1 -26 2 -19 3 -25 1
-20 -7 4 -6 11 -9 16 -6 11 7 40 -5 40 -16 0 -6 -8 -5 -19 1 -13 6 -22 7 -26
0 -8 -12 5 -81 18 -97 5 -7 7 -13 4 -13 -3 0 15 -21 39 -47 24 -27 44 -51 44
-55 0 -5 9 -8 20 -8 11 0 19 -5 17 -12 -1 -7 9 -13 22 -14 13 -1 26 -5 30 -10
3 -5 13 -13 22 -19 9 -5 28 -18 42 -28 14 -10 43 -20 65 -21 21 -2 48 -9 61
-15 12 -7 27 -10 34 -7 7 2 3 5 -7 5 -18 1 -18 3 4 26 13 14 20 26 17 26 -26
5 -34 4 -49 -9 -10 -8 -18 -10 -22 -3 -4 5 -17 8 -31 5 -13 -2 -27 1 -30 6 -5
8 -11 7 -21 -1 -12 -9 -13 -9 -9 3 4 11 -2 18 -20 22 -14 4 -23 11 -20 16 3 6
0 10 -7 10 -24 0 -68 25 -68 38 0 7 -4 10 -10 7 -5 -3 -10 -2 -10 3 0 5 -11
15 -25 22 -14 7 -25 19 -25 27 0 7 -4 13 -10 13 -5 0 -10 4 -10 10 0 5 -11 20
-25 34 -28 28 -35 79 -10 70 17 -7 20 -24 5 -24 -6 0 1 -12 15 -27 14 -15 25
-34 25 -42 0 -11 3 -12 11 -4 8 8 7 17 -2 34 -7 13 -14 26 -14 29 -1 3 -5 17
-9 31 -10 35 -13 169 -4 169 4 0 10 -12 13 -27 3 -16 10 -43 14 -61 6 -19 5
-30 0 -26 -12 7 -11 -7 1 -26 9 -13 10 -13 10 0 0 8 8 0 16 -18 9 -17 20 -32
24 -32 15 0 20 -33 8 -49 -11 -14 -11 -14 3 -4 13 11 21 6 49 -27 19 -22 37
-40 42 -40 5 0 21 -9 36 -20 38 -28 110 -32 123 -8 6 12 6 18 -1 18 -5 0 -10
-8 -10 -17 0 -15 -2 -16 -9 -3 -6 8 -8 17 -5 21 2 4 -9 2 -25 -4 -25 -9 -35
-7 -78 21 -52 33 -128 132 -158 205 -10 24 -18 85 -21 175 -8 187 -6 248 12
311 16 57 81 191 99 203 10 8 0 12 -18 9 -5 -1 -5 4 0 11 4 7 6 20 5 29 -4 24
44 34 64 14 21 -21 25 -19 15 8 -9 24 -28 29 -50 13 -12 -10 -12 -8 0 12 8 12
20 20 27 17 7 -3 10 0 7 5 -3 6 -2 10 4 10 5 0 12 -6 14 -12 4 -10 6 -10 6 0
1 6 8 12 18 12 14 0 14 2 -2 20 -22 24 -14 38 9 15 14 -14 16 -14 16 -2 0 9
-6 18 -12 20 -10 4 -10 6 0 6 7 1 11 5 7 10 -3 5 -1 12 5 16 6 4 10 -7 10 -26
0 -18 3 -29 7 -26 3 4 12 -1 20 -11 12 -16 13 -16 7 1 -4 11 -2 16 7 14 8 -2
11 -2 6 0 -4 3 -5 9 -1 14 3 5 1 9 -5 9 -5 0 -11 -6 -14 -12 -3 -9 -7 -7 -12
5 -12 29 17 49 71 51 59 3 80 -9 62 -33 -12 -14 -11 -15 5 -2 16 13 20 13 29
0 8 -11 9 -10 4 4 -3 10 -6 21 -6 23 0 3 -4 2 -10 -1 -5 -3 -10 -1 -10 4 0 16
12 13 39 -8 22 -16 23 -21 10 -33 -8 -8 -22 -14 -31 -12 -9 1 -19 -4 -22 -12
-7 -17 6 -18 22 -2 9 9 12 9 12 -2 0 -8 8 -4 20 10 11 13 20 27 20 32 0 5 5 6
10 3 6 -3 10 -13 10 -21 0 -8 -4 -12 -10 -9 -5 3 -10 2 -10 -4 0 -21 19 -20
26 1 7 22 7 22 14 3 4 -11 3 -26 -3 -33 -5 -7 -7 -15 -3 -19 3 -3 6 -1 6 5 0
7 4 12 10 12 5 0 6 -7 3 -17 -4 -11 -3 -14 5 -9 16 9 52 -11 52 -29 0 -8 -8
-15 -17 -15 -10 0 -14 -4 -8 -8 16 -12 16 -32 -1 -32 -8 0 -20 -13 -25 -30 -7
-19 -18 -30 -30 -30 -10 0 -19 -5 -19 -11 0 -6 7 -9 15 -5 8 3 19 -3 25 -12 8
-13 10 -14 9 -2 -1 8 -1 24 0 35 2 19 3 18 11 -3 5 -12 7 -29 4 -37 -6 -14
-11 -16 -51 -18 -10 -1 -23 -8 -30 -17 -10 -13 -11 -12 -10 5 1 11 10 22 19
25 15 4 13 7 -8 17 -21 10 -25 10 -20 -2 3 -8 1 -17 -5 -20 -5 -4 -7 -11 -4
-16 4 -5 3 -9 -2 -9 -4 0 -18 -3 -29 -6 -28 -7 -39 20 -17 41 13 14 18 14 25
3 8 -10 9 -10 5 2 -2 10 -18 15 -51 16 -45 2 -47 1 -42 -22 4 -16 1 -26 -11
-33 -10 -6 -13 -11 -7 -11 5 0 15 5 22 12 9 9 9 4 0 -20 -7 -18 -16 -32 -21
-32 -5 0 -7 7 -4 15 4 8 2 17 -3 20 -6 4 -10 22 -10 40 0 32 -2 34 -28 29 -19
-4 -32 -1 -41 10 -12 14 -8 16 30 18 24 1 88 0 142 -1 66 -2 97 0 97 8 0 6 -6
11 -12 11 -7 0 -24 3 -38 6 -20 5 -22 4 -10 -6 12 -9 5 -10 -30 -5 -24 3 -48
11 -52 18 -6 9 -8 8 -8 -2 0 -8 -3 -12 -6 -9 -3 4 -18 2 -34 -2 -18 -5 -30 -4
-32 2 -5 14 -64 -16 -72 -37 -8 -23 -8 -27 3 -21 5 4 19 -6 31 -21 20 -27 21
-27 16 -5 -3 18 -1 22 11 18 8 -3 17 -6 19 -6 2 0 4 -5 4 -11 0 -5 -4 -7 -10
-4 -16 10 -11 -31 5 -45 10 -8 12 -17 6 -24 -7 -8 -3 -12 12 -12 30 0 58 35
54 68 -2 16 2 29 10 32 7 3 12 -2 11 -12 -3 -41 5 -58 37 -79 34 -22 58 -16
30 7 -18 15 0 38 30 35 11 0 26 3 32 8 7 5 19 7 28 4 14 -6 28 7 31 28 1 6 5
28 9 50 5 29 4 36 -4 25 -6 -8 -11 -10 -11 -4 0 6 9 19 19 28 11 10 17 24 15
31 -3 7 -1 16 5 20 7 3 11 -2 11 -14 0 -11 8 -25 18 -31 15 -9 14 -10 -5 -5
-14 4 -23 2 -23 -4 0 -6 3 -10 8 -10 20 3 31 -2 26 -15 -3 -7 7 -35 21 -61 45
-86 55 -140 66 -355 5 -113 7 -220 4 -239 -9 -49 -63 -139 -88 -147 -12 -4
-31 -13 -42 -22 -17 -12 -17 -13 -2 -8 11 3 16 2 12 -4 -3 -6 -14 -10 -24 -10
-10 0 -24 -6 -30 -14 -7 -8 -26 -18 -42 -21 -28 -6 -33 -14 -30 -43 1 -7 -7
-4 -19 8 -16 16 -25 19 -34 11 -7 -6 -16 -8 -19 -4 -4 3 -7 2 -7 -4 0 -6 7
-13 15 -17 8 -3 14 -2 14 2 -3 20 2 24 14 9 6 -10 21 -19 33 -21 17 -4 21 0
18 20 -2 21 1 24 19 19 18 -5 19 -4 7 5 -13 9 -12 11 5 8 11 -2 28 5 37 15 9
10 23 17 30 15 7 -3 22 6 35 20 12 13 27 21 32 17 6 -3 11 -1 11 5 0 6 6 17
13 25 23 24 42 51 46 66 23 81 28 112 26 159 -1 48 0 51 9 28 5 -16 18 -30 27
-33 26 -9 28 -37 5 -65 l-21 -25 23 19 c18 16 25 17 35 7 6 -7 7 -11 2 -9 -6
2 -11 -1 -13 -7 -2 -5 -10 -17 -18 -26 -7 -8 -17 -30 -20 -47 -4 -18 -11 -35
-15 -38 -5 -3 -9 -12 -9 -20 0 -10 5 -12 13 -8 13 9 -11 -26 -27 -38 -6 -4
-11 -22 -11 -40 -2 -48 -13 -75 -33 -83 -14 -5 -15 -4 -4 6 14 15 16 33 2 24
-6 -4 -7 1 -3 12 4 14 3 15 -6 7 -7 -6 -14 -20 -16 -30 -1 -11 -8 -18 -15 -16
-6 1 -9 -2 -5 -8 3 -5 1 -10 -5 -10 -6 0 -9 -4 -6 -8 3 -5 -9 -10 -27 -11 -54
-3 -56 -4 -51 -13 3 -4 -1 -8 -8 -9 -108 -7 -134 -6 -152 10 -19 16 -19 15 -1
-11 10 -17 13 -28 6 -28 -6 0 -11 5 -11 11 0 5 -4 8 -9 5 -5 -4 -11 0 -14 6
-2 7 -8 10 -12 6 -15 -14 20 -63 48 -66 15 -2 27 1 27 6 0 15 52 31 83 27 15
-2 40 3 54 10 15 8 30 12 35 9 4 -3 21 4 36 16 15 12 41 28 59 35 31 13 53 57
53 108 0 14 5 17 23 13 12 -3 16 -3 10 0 -7 3 -13 10 -13 15 0 16 29 10 49
-10 20 -20 20 -20 27 2 16 46 6 65 -36 66 -11 0 -10 -3 4 -14 19 -15 31 -45
18 -45 -4 0 -15 7 -25 14 -14 11 -15 15 -5 19 8 4 6 6 -5 6 -14 1 -16 5 -8 20
6 10 8 21 4 24 -3 4 13 27 36 52 39 42 53 86 33 99 -5 3 -7 -7 -5 -22 2 -16
-4 -37 -17 -52 -11 -14 -20 -20 -20 -13 0 6 5 15 10 18 6 3 10 25 10 48 0 31
-5 45 -19 54 -10 7 -26 26 -34 43 -9 17 -11 28 -6 25 5 -4 9 1 9 9 0 9 -4 16
-10 16 -5 0 -10 7 -10 16 0 8 -4 13 -9 9 -5 -3 -17 5 -25 17 -18 25 -22 118
-6 118 6 0 10 9 10 20 0 11 -3 20 -7 20 -5 0 -9 19 -11 42 -1 22 -6 46 -10 52
-3 6 -8 20 -9 30 -9 53 -56 185 -78 218 -14 20 -25 42 -25 47 0 6 -4 11 -8 11
-5 0 -23 19 -41 43 -30 40 -77 76 -111 85 -31 8 -136 9 -165 1z m-91 -95 c10
-25 -1 -29 -14 -5 -6 12 -7 21 -1 21 5 0 12 -7 15 -16z m-94 -174 c0 -5 -5
-10 -11 -10 -5 0 -7 5 -4 10 3 6 8 10 11 10 2 0 4 -4 4 -10z m330 -100 c-8 -5
-19 -10 -25 -10 -5 0 -3 5 5 10 8 5 20 10 25 10 6 0 3 -5 -5 -10z m337 -382
c-3 -8 -6 -5 -6 6 -1 11 2 17 5 13 3 -3 4 -12 1 -19z m-780 -60 c-3 -7 -5 -2
-5 12 0 14 2 19 5 13 2 -7 2 -19 0 -25z m342 -494 c-6 -8 -17 -14 -23 -14 -6
0 -3 5 7 11 9 6 14 15 11 21 -4 7 -2 8 5 4 9 -6 9 -11 0 -22z m131 12 c-7 -7
-14 -6 -21 1 -9 9 -7 12 9 10 14 -1 18 -5 12 -11z m-62 -21 c-3 -3 -9 2 -12
12 -6 14 -5 15 5 6 7 -7 10 -15 7 -18z m32 11 c0 -3 -4 -8 -10 -11 -5 -3 -10
-1 -10 4 0 6 5 11 10 11 6 0 10 -2 10 -4z"/>
<path d="M1082 1550 c0 -14 2 -19 5 -12 2 6 2 18 0 25 -3 6 -5 1 -5 -13z"/>
<path d="M1870 1531 c-14 -10 -40 -24 -59 -31 -31 -12 -35 -12 -49 6 -14 18
-14 18 -8 0 5 -16 4 -17 -9 -6 -13 10 -15 9 -15 -7 0 -18 4 -19 52 -12 28 5
54 6 59 4 11 -7 39 6 39 18 0 6 7 19 17 29 21 23 6 23 -27 -1z"/>
<path d="M1420 1531 c0 -6 5 -13 10 -16 6 -3 10 1 10 9 0 9 -4 16 -10 16 -5 0
-10 -4 -10 -9z"/>
<path d="M1470 1523 c0 -12 -5 -25 -11 -28 -6 -4 -8 -13 -5 -21 3 -7 1 -16 -4
-19 -6 -4 -10 -19 -10 -35 0 -15 -6 -30 -12 -33 -24 -8 -3 -16 55 -19 50 -3
57 -2 57 14 0 10 -4 18 -9 18 -10 0 -27 39 -23 53 1 5 -3 5 -10 1 -26 -16 -34
-12 -30 17 2 16 9 32 14 35 6 4 8 -3 4 -17 -6 -20 -5 -21 4 -6 8 13 7 22 -4
39 l-16 22 0 -21z m27 -125 c-1 -16 -3 -16 -19 -1 -17 15 -18 15 -18 -2 0 -10
-3 -16 -6 -12 -4 3 -4 13 -1 21 8 21 46 16 44 -6z"/>
<path d="M1070 1500 c0 -11 4 -20 9 -20 5 0 7 9 4 20 -3 11 -7 20 -9 20 -2 0
-4 -9 -4 -20z"/>
<path d="M2416 1474 c-4 -9 -4 -19 -1 -22 3 -3 5 0 5 7 0 7 4 9 10 6 6 -3 7 1
4 9 -8 20 -10 20 -18 0z"/>
<path d="M1650 1403 c0 -16 16 -17 25 -3 4 6 11 8 16 5 5 -4 9 -2 9 3 0 6 -11
9 -25 8 -14 0 -25 -7 -25 -13z"/>
<path d="M1254 1363 c1 -10 6 -25 9 -33 3 -8 8 -28 11 -43 4 -15 11 -25 16
-22 6 3 10 2 10 -4 0 -5 -5 -11 -11 -13 -14 -5 0 -38 17 -38 8 0 14 5 14 10 0
6 -5 10 -10 10 -6 0 -8 11 -4 25 3 14 1 31 -5 39 -9 11 -8 15 6 20 15 6 15 8
3 16 -9 6 -18 5 -23 -3 -6 -8 -7 -4 -4 10 3 12 2 22 -2 21 -19 -2 -24 3 -11
12 13 8 12 10 -2 10 -12 0 -17 -6 -14 -17z"/>
<path d="M1330 1240 c0 -5 5 -10 10 -10 6 0 10 5 10 10 0 6 -4 10 -10 10 -5 0
-10 -4 -10 -10z"/>
<path d="M1336 1208 c3 -4 9 -8 15 -8 5 0 9 4 9 8 0 5 -7 9 -15 9 -8 0 -12 -4
-9 -9z"/>
<path d="M1380 1097 c0 -7 7 -22 15 -33 13 -17 14 -16 4 14 -11 33 -19 41 -19
19z"/>
<path d="M1574 1085 c-9 -14 -14 -28 -12 -31 8 -8 38 25 38 42 0 20 -7 17 -26
-11z"/>
<path d="M1550 970 c0 -15 -5 -31 -10 -36 -30 -30 -7 -103 33 -104 26 0 21 19
-9 32 -19 9 -24 17 -20 32 3 12 6 27 6 34 0 7 4 11 9 8 4 -3 13 6 20 20 8 18
8 23 0 18 -6 -3 -15 0 -20 7 -6 10 -9 7 -9 -11z"/>
<path d="M1871 943 c-1 -28 4 -55 9 -58 12 -7 12 48 0 85 -6 20 -8 14 -9 -27z"/>
<path d="M1617 946 c-16 -14 -33 -26 -39 -26 -6 0 -1 -12 13 -27 21 -23 21
-25 5 -19 -19 7 -19 6 -1 -14 10 -11 28 -20 39 -19 19 0 19 1 -3 10 -36 14
-22 17 39 9 66 -9 85 -1 88 38 2 32 -27 52 -78 52 -15 0 -30 5 -32 11 -2 6
-16 -1 -31 -15z m103 -19 c36 -16 35 -16 14 -32 -24 -18 -34 -19 -34 -1 0 7
-6 19 -13 25 -19 15 -53 -10 -44 -33 8 -21 -5 -20 -34 3 l-24 19 35 16 c24 11
27 14 10 10 -19 -4 -21 -3 -10 5 16 11 62 5 100 -12z m-43 -43 c-9 -9 -28 6
-21 18 4 6 10 6 17 -1 6 -6 8 -13 4 -17z m63 -14 c-8 -5 -19 -10 -25 -10 -5 0
-3 5 5 10 8 5 20 10 25 10 6 0 3 -5 -5 -10z"/>
<path d="M1258 953 c7 -3 16 -2 19 1 4 3 -2 6 -13 5 -11 0 -14 -3 -6 -6z"/>
<path d="M1330 935 c-14 -8 -20 -14 -13 -15 6 0 24 -5 38 -10 l27 -10 -24 -19
c-23 -19 -23 -19 -28 2 -8 32 -55 31 -54 0 1 -30 -8 -29 -43 3 -15 14 -23 23
-17 20 7 -3 25 1 40 9 l29 15 -27 0 c-16 0 -28 -5 -28 -11 0 -5 -4 -8 -9 -5
-5 3 -14 -1 -21 -9 -10 -12 -6 -18 22 -35 50 -30 110 -27 150 9 l33 29 -28 7
c-18 5 -26 12 -23 21 6 17 7 17 -24 -1z m-23 -62 c-3 -3 -11 -2 -17 2 -9 6 -9
10 1 16 14 8 27 -7 16 -18z"/>
<path d="M1428 915 c11 -24 6 -43 -21 -72 -26 -29 -9 -30 21 -3 26 24 28 49 6
76 -15 19 -15 19 -6 -1z"/>
<path d="M1786 875 c4 -8 1 -22 -6 -30 -10 -12 -10 -15 1 -15 12 0 12 -2 0 -9
-9 -6 -19 -4 -28 5 -8 8 -19 12 -24 9 -11 -7 -12 -15 -1 -14 19 3 25 -2 12
-11 -11 -7 -11 -10 -2 -10 7 0 10 -5 7 -10 -4 -6 -13 -3 -23 9 -12 13 -35 21
-72 25 -30 3 -47 3 -37 0 9 -3 17 -10 17 -15 0 -6 -6 -7 -12 -3 -7 4 -4 -2 6
-14 21 -25 6 -30 -18 -7 -13 14 -15 13 -13 -3 0 -10 9 -19 21 -20 23 -1 48 16
40 29 -3 5 2 6 11 2 13 -5 14 -7 3 -14 -9 -6 -6 -9 10 -9 13 0 20 4 17 10 -3
6 1 7 9 4 9 -3 13 -11 9 -18 -3 -6 -3 -8 2 -4 4 4 17 3 28 -3 12 -7 17 -7 13
-1 -3 5 1 13 10 16 8 3 12 11 8 17 -4 8 -3 9 5 5 13 -8 18 4 24 57 4 27 1 37
-9 37 -8 0 -11 -6 -8 -15z"/>
<path d="M1166 853 c-9 -31 12 -97 39 -121 15 -12 29 -20 33 -18 17 10 82 15
87 6 13 -20 32 -9 42 24 9 30 9 34 -6 29 -9 -3 -22 -10 -28 -16 -7 -5 -13 -7
-13 -3 0 3 15 16 33 27 17 12 23 18 12 14 -11 -4 -36 -9 -55 -12 -19 -3 -41
-10 -47 -16 -9 -7 -13 -5 -13 7 0 10 -5 14 -10 11 -6 -4 -8 -15 -5 -26 5 -16
1 -14 -23 8 -16 15 -25 31 -20 34 5 3 2 11 -5 18 -8 6 -13 21 -10 31 7 25 -4
27 -11 3z m184 -114 c-7 -11 -14 -18 -17 -15 -3 3 0 12 7 21 18 21 23 19 10
-6z"/>
<path d="M1210 851 c0 -25 120 -56 133 -33 3 4 -17 7 -43 7 -33 0 -55 6 -69
19 -13 11 -21 14 -21 7z"/>
<path d="M1506 805 c4 -8 10 -12 15 -9 11 6 2 24 -11 24 -5 0 -7 -7 -4 -15z"/>
<path d="M1410 766 c0 -8 4 -17 9 -20 5 -4 7 3 4 14 -6 23 -13 26 -13 6z"/>
<path d="M1521 764 c0 -11 3 -14 6 -6 3 7 2 16 -1 19 -3 4 -6 -2 -5 -13z"/>
<path d="M1381 738 c-13 -20 -12 -22 1 -11 8 7 18 10 22 6 4 -4 4 0 0 10 -8
21 -6 21 -23 -5z"/>
<path d="M2022 635 c4 -4 3 -16 -3 -26 -5 -11 -7 -19 -5 -19 3 0 10 9 16 19 7
15 7 22 -2 27 -7 4 -10 4 -6 -1z"/>
<path d="M1495 620 c3 -5 8 -10 11 -10 2 0 4 5 4 10 0 6 -5 10 -11 10 -5 0 -7
-4 -4 -10z"/>
<path d="M1873 578 c-6 -7 -16 -24 -22 -38 -12 -24 -12 -24 4 -5 20 24 37 55
32 55 -3 0 -9 -6 -14 -12z"/>
<path d="M1987 573 c-4 -3 -7 -13 -6 -22 0 -12 3 -11 9 4 7 18 9 18 15 3 3 -9
2 -25 -3 -35 -5 -10 -6 -27 -1 -38 5 -14 8 -16 9 -5 1 8 3 22 4 30 2 8 3 23 4
33 1 11 7 15 14 11 7 -4 8 -3 4 5 -4 6 -12 9 -17 6 -5 -4 -9 -1 -9 4 0 12 -13
14 -23 4z"/>
<path d="M1500 441 c0 -5 5 -13 10 -16 6 -3 10 -2 10 4 0 5 -4 13 -10 16 -5 3
-10 2 -10 -4z"/>
<path d="M1568 443 c12 -2 30 -2 40 0 9 3 -1 5 -23 4 -22 0 -30 -2 -17 -4z"/>
<path d="M1826 425 c4 -8 8 -15 10 -15 2 0 4 7 4 15 0 8 -4 15 -10 15 -5 0 -7
-7 -4 -15z"/>
<path d="M1479 408 c-7 -25 -5 -36 6 -31 8 2 11 11 8 19 -5 12 -12 18 -14 12z"/>
<path d="M1298 223 c7 -3 16 -2 19 1 4 3 -2 6 -13 5 -11 0 -14 -3 -6 -6z"/>
</g>
</svg>
